<svg xmlns="http://www.w3.org/2000/svg" xmlns:xlink="http://www.w3.org/1999/xlink" width="20" height="20" x="0" y="0" enable-background="new 0 0 20 20" version="1.1" viewBox="0 0 20 20" xml:space="preserve"><g id="Layer_1" display="none"><g display="inline"><g><g><path fill="none" stroke="#8F9FAE" stroke-linecap="round" stroke-linejoin="round" stroke-miterlimit="10" d="M0.641,17.014 c0-3.319,2.691-6.011,6.01-6.011c3.323,0,6.013,2.691,6.013,6.011"/><path fill="none" stroke="#8F9FAE" stroke-linecap="round" stroke-linejoin="round" stroke-miterlimit="10" d="M10.658,6.993 c0,2.214-1.792,4.01-4.008,4.01c-2.211,0-4.004-1.796-4.004-4.01c0-2.211,1.793-4.007,4.004-4.007 C8.866,2.986,10.658,4.782,10.658,6.993z"/></g></g><g><line x1="13.847" x2="19.359" y1="4.099" y2="4.099" fill="none" stroke="#8F9FAE" stroke-linecap="round" stroke-linejoin="round" stroke-miterlimit="10"/><line x1="13.847" x2="19.359" y1="7.341" y2="7.341" fill="none" stroke="#8F9FAE" stroke-linecap="round" stroke-linejoin="round" stroke-miterlimit="10"/><line x1="13.847" x2="19.359" y1="10.58" y2="10.58" fill="none" stroke="#8F9FAE" stroke-linecap="round" stroke-linejoin="round" stroke-miterlimit="10"/></g></g></g><g id="Layer_2" display="none"><g display="inline"><polyline fill="none" stroke="#8F9FAE" stroke-linecap="round" stroke-linejoin="round" stroke-miterlimit="10" points="11.607 6.482 11.607 3.654 2.602 3.654 2.602 16.346 11.607 16.346 11.607 13.779"/><line x1="17.398" x2="8.391" y1="10" y2="10" fill="none" stroke="#8F9FAE" stroke-linecap="round" stroke-linejoin="round" stroke-miterlimit="10"/><polyline fill="none" stroke="#8F9FAE" stroke-linecap="round" stroke-linejoin="round" stroke-miterlimit="10" points="13.883 6.482 17.398 10 13.883 13.518"/></g></g><g id="Layer_3" display="none"><g display="inline"><path fill="none" stroke="#747F8D" stroke-linecap="round" stroke-linejoin="round" stroke-miterlimit="10" d="M14.421,14.939 h1.575c0.826,0,1.504-0.658,1.504-1.462V2.962c0-0.806-0.678-1.462-1.504-1.462H4.004C3.178,1.5,2.5,2.156,2.5,2.962v10.516 c0,0.804,0.678,1.462,1.504,1.462h1.575"/><line x1="10" x2="10" y1="5.828" y2="18.5" fill="none" stroke="#747F8D" stroke-linecap="round" stroke-linejoin="round" stroke-miterlimit="10"/><polyline fill="none" stroke="#747F8D" stroke-linecap="round" stroke-linejoin="round" stroke-miterlimit="10" points="6.625 9.141 9.998 5.629 13.375 9.141"/></g></g><g id="Layer_4"><g><circle cx="10" cy="10" r="9.18" fill="#A3B5C4" opacity=".2"/><g><defs><circle id="SVGID_1_" cx="10" cy="10" r="8"/></defs><clipPath id="SVGID_2_"><use overflow="visible" xlink:href="#SVGID_1_"/></clipPath><ellipse cx="9.999" cy="7.654" fill="#60768B" clip-path="url(#SVGID_2_)" opacity=".5" rx="2.897" ry="3.146"/><path fill="#60768B" d="M4.1,15.484v1.119l5.9,2.85l5.908-2.85v-0.889 c0-2.189-2.646-3.963-5.908-3.963c-3.091,0-5.629,1.591-5.887,3.621C4.1,15.484,4.091,15.6,4.091,15.715" clip-path="url(#SVGID_2_)" opacity=".5"/></g></g></g></svg>